<svg id="Capa_1" enable-background="new 0 0 512 512" height="512" viewBox="0 0 512 512" width="512" xmlns="http://www.w3.org/2000/svg"><g><path d="m376 79.799 30 73.543-30 66.857-90 9.9-30-78.094 30-82.106z" fill="#ecf2ff"/><path d="m256 152.005 30 78.094 90-9.9 30-66.857-1.362-3.342h-147.906z" fill="#d9e5ff"/><path d="m121 143.027 83.32-55.547-16.64-24.96-66.68 44.452v-31.972h-30v369.998h30v-251.97l66.68 44.452 16.64-24.96-83.32-55.547z" fill="#4d7f99"/><path d="m91 150v294.998h30v-251.97l66.68 44.452 16.64-24.96-83.32-55.547v-6.973z" fill="#406080"/><g id="Windsock_1_"><g fill="#ff80b9"><path d="m481 91.5v117l-105 11.699v-140.4z"/><path d="m286 69.899v160.2l-105 11.701v-183.6z"/></g><g><path d="m106 90c-24.814 0-45-20.186-45-45s20.186-45 45-45 45 20.186 45 45-20.186 45-45 45z" fill="#bfd6ff"/></g></g><path d="m0 512v-90c60.029 0 106.498 7.632 136 15 30.967 7.734 60.088 15 120 15s89.033-7.266 119.854-14.956c29.648-7.412 76.117-15.044 136.146-15.044v90z" fill="#ecf2ff"/><path d="m376 150v70.199l105-11.699v-58.5z" fill="#e65c9a"/><path d="m181 150v91.8l105-11.701v-80.099z" fill="#e65c9a"/><path d="m512 512v-90c-60.029 0-106.498 7.632-136.146 15.044-30.821 7.69-59.942 14.956-119.854 14.956v60z" fill="#d9e5ff"/></g></svg>